<svg viewBox="0 0 81 79.80000000000001" xmlns:xlink="http://www.w3.org/1999/xlink" xmlns="http://www.w3.org/2000/svg" style="max-height: 500px" width="81" height="79.80000000000001"><defs><clipPath id="clip-path-background-color-8"><rect height="300" width="300" y="0" x="0"/></clipPath><clipPath id="clip-path-dot-color-8"><rect transform="rotate(0,120,10)" height="10" width="10" y="5" x="115"/><rect transform="rotate(0,150,10)" height="10" width="10" y="5" x="145"/><rect transform="rotate(0,170,10)" height="10" width="10" y="5" x="165"/><rect transform="rotate(0,180,10)" height="10" width="10" y="5" x="175"/><rect transform="rotate(0,190,10)" height="10" width="10" y="5" x="185"/><rect transform="rotate(0,200,10)" height="10" width="10" y="5" x="195"/><rect transform="rotate(0,210,10)" height="10" width="10" y="5" x="205"/><rect transform="rotate(0,110,20)" height="10" width="10" y="15" x="105"/><rect transform="rotate(0,150,20)" height="10" width="10" y="15" x="145"/><rect transform="rotate(0,170,20)" height="10" width="10" y="15" x="165"/><rect transform="rotate(0,200,20)" height="10" width="10" y="15" x="195"/><rect transform="rotate(0,90,30)" height="10" width="10" y="25" x="85"/><rect transform="rotate(0,100,30)" height="10" width="10" y="25" x="95"/><rect transform="rotate(0,110,30)" height="10" width="10" y="25" x="105"/><rect transform="rotate(0,120,30)" height="10" width="10" y="25" x="115"/><rect transform="rotate(0,150,30)" height="10" width="10" y="25" x="145"/><rect transform="rotate(0,160,30)" height="10" width="10" y="25" x="155"/><rect transform="rotate(0,180,30)" height="10" width="10" y="25" x="175"/><rect transform="rotate(0,190,30)" height="10" width="10" y="25" x="185"/><rect transform="rotate(0,210,30)" height="10" width="10" y="25" x="205"/><rect transform="rotate(0,120,40)" height="10" width="10" y="35" x="115"/><rect transform="rotate(0,130,40)" height="10" width="10" y="35" x="125"/><rect transform="rotate(0,150,40)" height="10" width="10" y="35" x="145"/><rect transform="rotate(0,170,40)" height="10" width="10" y="35" x="165"/><rect transform="rotate(0,190,40)" height="10" width="10" y="35" x="185"/><rect transform="rotate(0,200,40)" height="10" width="10" y="35" x="195"/><rect transform="rotate(0,90,50)" height="10" width="10" y="45" x="85"/><rect transform="rotate(0,100,50)" height="10" width="10" y="45" x="95"/><rect transform="rotate(0,140,50)" height="10" width="10" y="45" x="135"/><rect transform="rotate(0,170,50)" height="10" width="10" y="45" x="165"/><rect transform="rotate(0,180,50)" height="10" width="10" y="45" x="175"/><rect transform="rotate(0,190,50)" height="10" width="10" y="45" x="185"/><rect transform="rotate(0,210,50)" height="10" width="10" y="45" x="205"/><rect transform="rotate(0,90,60)" height="10" width="10" y="55" x="85"/><rect transform="rotate(0,140,60)" height="10" width="10" y="55" x="135"/><rect transform="rotate(0,150,60)" height="10" width="10" y="55" x="145"/><rect transform="rotate(0,160,60)" height="10" width="10" y="55" x="155"/><rect transform="rotate(0,170,60)" height="10" width="10" y="55" x="165"/><rect transform="rotate(0,180,60)" height="10" width="10" y="55" x="175"/><rect transform="rotate(0,200,60)" height="10" width="10" y="55" x="195"/><rect transform="rotate(0,210,60)" height="10" width="10" y="55" x="205"/><rect transform="rotate(0,90,70)" height="10" width="10" y="65" x="85"/><rect transform="rotate(0,110,70)" height="10" width="10" y="65" x="105"/><rect transform="rotate(0,130,70)" height="10" width="10" y="65" x="125"/><rect transform="rotate(0,150,70)" height="10" width="10" y="65" x="145"/><rect transform="rotate(0,170,70)" height="10" width="10" y="65" x="165"/><rect transform="rotate(0,190,70)" height="10" width="10" y="65" x="185"/><rect transform="rotate(0,210,70)" height="10" width="10" y="65" x="205"/><rect transform="rotate(0,110,80)" height="10" width="10" y="75" x="105"/><rect transform="rotate(0,120,80)" height="10" width="10" y="75" x="115"/><rect transform="rotate(0,130,80)" height="10" width="10" y="75" x="125"/><rect transform="rotate(0,150,80)" height="10" width="10" y="75" x="145"/><rect transform="rotate(0,160,80)" height="10" width="10" y="75" x="155"/><rect transform="rotate(0,170,80)" height="10" width="10" y="75" x="165"/><rect transform="rotate(0,200,80)" height="10" width="10" y="75" x="195"/><rect transform="rotate(0,20,90)" height="10" width="10" y="85" x="15"/><rect transform="rotate(0,50,90)" height="10" width="10" y="85" x="45"/><rect transform="rotate(0,70,90)" height="10" width="10" y="85" x="65"/><rect transform="rotate(0,90,90)" height="10" width="10" y="85" x="85"/><rect transform="rotate(0,100,90)" height="10" width="10" y="85" x="95"/><rect transform="rotate(0,140,90)" height="10" width="10" y="85" x="135"/><rect transform="rotate(0,150,90)" height="10" width="10" y="85" x="145"/><rect transform="rotate(0,170,90)" height="10" width="10" y="85" x="165"/><rect transform="rotate(0,200,90)" height="10" width="10" y="85" x="195"/><rect transform="rotate(0,210,90)" height="10" width="10" y="85" x="205"/><rect transform="rotate(0,220,90)" height="10" width="10" y="85" x="215"/><rect transform="rotate(0,240,90)" height="10" width="10" y="85" x="235"/><rect transform="rotate(0,250,90)" height="10" width="10" y="85" x="245"/><rect transform="rotate(0,270,90)" height="10" width="10" y="85" x="265"/><rect transform="rotate(0,10,100)" height="10" width="10" y="95" x="5"/><rect transform="rotate(0,20,100)" height="10" width="10" y="95" x="15"/><rect transform="rotate(0,50,100)" height="10" width="10" y="95" x="45"/><rect transform="rotate(0,60,100)" height="10" width="10" y="95" x="55"/><rect transform="rotate(0,100,100)" height="10" width="10" y="95" x="95"/><rect transform="rotate(0,110,100)" height="10" width="10" y="95" x="105"/><rect transform="rotate(0,190,100)" height="10" width="10" y="95" x="185"/><rect transform="rotate(0,230,100)" height="10" width="10" y="95" x="225"/><rect transform="rotate(0,240,100)" height="10" width="10" y="95" x="235"/><rect transform="rotate(0,250,100)" height="10" width="10" y="95" x="245"/><rect transform="rotate(0,270,100)" height="10" width="10" y="95" x="265"/><rect transform="rotate(0,280,100)" height="10" width="10" y="95" x="275"/><rect transform="rotate(0,290,100)" height="10" width="10" y="95" x="285"/><rect transform="rotate(0,10,110)" height="10" width="10" y="105" x="5"/><rect transform="rotate(0,30,110)" height="10" width="10" y="105" x="25"/><rect transform="rotate(0,50,110)" height="10" width="10" y="105" x="45"/><rect transform="rotate(0,60,110)" height="10" width="10" y="105" x="55"/><rect transform="rotate(0,70,110)" height="10" width="10" y="105" x="65"/><rect transform="rotate(0,90,110)" height="10" width="10" y="105" x="85"/><rect transform="rotate(0,100,110)" height="10" width="10" y="105" x="95"/><rect transform="rotate(0,120,110)" height="10" width="10" y="105" x="115"/><rect transform="rotate(0,150,110)" height="10" width="10" y="105" x="145"/><rect transform="rotate(0,160,110)" height="10" width="10" y="105" x="155"/><rect transform="rotate(0,170,110)" height="10" width="10" y="105" x="165"/><rect transform="rotate(0,210,110)" height="10" width="10" y="105" x="205"/><rect transform="rotate(0,220,110)" height="10" width="10" y="105" x="215"/><rect transform="rotate(0,240,110)" height="10" width="10" y="105" x="235"/><rect transform="rotate(0,250,110)" height="10" width="10" y="105" x="245"/><rect transform="rotate(0,290,110)" height="10" width="10" y="105" x="285"/><rect transform="rotate(0,30,120)" height="10" width="10" y="115" x="25"/><rect transform="rotate(0,80,120)" height="10" width="10" y="115" x="75"/><rect transform="rotate(0,90,120)" height="10" width="10" y="115" x="85"/><rect transform="rotate(0,110,120)" height="10" width="10" y="115" x="105"/><rect transform="rotate(0,140,120)" height="10" width="10" y="115" x="135"/><rect transform="rotate(0,160,120)" height="10" width="10" y="115" x="155"/><rect transform="rotate(0,170,120)" height="10" width="10" y="115" x="165"/><rect transform="rotate(0,180,120)" height="10" width="10" y="115" x="175"/><rect transform="rotate(0,190,120)" height="10" width="10" y="115" x="185"/><rect transform="rotate(0,200,120)" height="10" width="10" y="115" x="195"/><rect transform="rotate(0,210,120)" height="10" width="10" y="115" x="205"/><rect transform="rotate(0,220,120)" height="10" width="10" y="115" x="215"/><rect transform="rotate(0,250,120)" height="10" width="10" y="115" x="245"/><rect transform="rotate(0,260,120)" height="10" width="10" y="115" x="255"/><rect transform="rotate(0,280,120)" height="10" width="10" y="115" x="275"/><rect transform="rotate(0,290,120)" height="10" width="10" y="115" x="285"/><rect transform="rotate(0,20,130)" height="10" width="10" y="125" x="15"/><rect transform="rotate(0,50,130)" height="10" width="10" y="125" x="45"/><rect transform="rotate(0,60,130)" height="10" width="10" y="125" x="55"/><rect transform="rotate(0,70,130)" height="10" width="10" y="125" x="65"/><rect transform="rotate(0,80,130)" height="10" width="10" y="125" x="75"/><rect transform="rotate(0,90,130)" height="10" width="10" y="125" x="85"/><rect transform="rotate(0,110,130)" height="10" width="10" y="125" x="105"/><rect transform="rotate(0,120,130)" height="10" width="10" y="125" x="115"/><rect transform="rotate(0,130,130)" height="10" width="10" y="125" x="125"/><rect transform="rotate(0,140,130)" height="10" width="10" y="125" x="135"/><rect transform="rotate(0,150,130)" height="10" width="10" y="125" x="145"/><rect transform="rotate(0,170,130)" height="10" width="10" y="125" x="165"/><rect transform="rotate(0,180,130)" height="10" width="10" y="125" x="175"/><rect transform="rotate(0,240,130)" height="10" width="10" y="125" x="235"/><rect transform="rotate(0,290,130)" height="10" width="10" y="125" x="285"/><rect transform="rotate(0,10,140)" height="10" width="10" y="135" x="5"/><rect transform="rotate(0,30,140)" height="10" width="10" y="135" x="25"/><rect transform="rotate(0,100,140)" height="10" width="10" y="135" x="95"/><rect transform="rotate(0,120,140)" height="10" width="10" y="135" x="115"/><rect transform="rotate(0,130,140)" height="10" width="10" y="135" x="125"/><rect transform="rotate(0,140,140)" height="10" width="10" y="135" x="135"/><rect transform="rotate(0,160,140)" height="10" width="10" y="135" x="155"/><rect transform="rotate(0,190,140)" height="10" width="10" y="135" x="185"/><rect transform="rotate(0,230,140)" height="10" width="10" y="135" x="225"/><rect transform="rotate(0,250,140)" height="10" width="10" y="135" x="245"/><rect transform="rotate(0,270,140)" height="10" width="10" y="135" x="265"/><rect transform="rotate(0,280,140)" height="10" width="10" y="135" x="275"/><rect transform="rotate(0,290,140)" height="10" width="10" y="135" x="285"/><rect transform="rotate(0,10,150)" height="10" width="10" y="145" x="5"/><rect transform="rotate(0,20,150)" height="10" width="10" y="145" x="15"/><rect transform="rotate(0,40,150)" height="10" width="10" y="145" x="35"/><rect transform="rotate(0,60,150)" height="10" width="10" y="145" x="55"/><rect transform="rotate(0,70,150)" height="10" width="10" y="145" x="65"/><rect transform="rotate(0,90,150)" height="10" width="10" y="145" x="85"/><rect transform="rotate(0,120,150)" height="10" width="10" y="145" x="115"/><rect transform="rotate(0,140,150)" height="10" width="10" y="145" x="135"/><rect transform="rotate(0,150,150)" height="10" width="10" y="145" x="145"/><rect transform="rotate(0,180,150)" height="10" width="10" y="145" x="175"/><rect transform="rotate(0,210,150)" height="10" width="10" y="145" x="205"/><rect transform="rotate(0,230,150)" height="10" width="10" y="145" x="225"/><rect transform="rotate(0,250,150)" height="10" width="10" y="145" x="245"/><rect transform="rotate(0,290,150)" height="10" width="10" y="145" x="285"/><rect transform="rotate(0,30,160)" height="10" width="10" y="155" x="25"/><rect transform="rotate(0,90,160)" height="10" width="10" y="155" x="85"/><rect transform="rotate(0,110,160)" height="10" width="10" y="155" x="105"/><rect transform="rotate(0,120,160)" height="10" width="10" y="155" x="115"/><rect transform="rotate(0,130,160)" height="10" width="10" y="155" x="125"/><rect transform="rotate(0,160,160)" height="10" width="10" y="155" x="155"/><rect transform="rotate(0,180,160)" height="10" width="10" y="155" x="175"/><rect transform="rotate(0,190,160)" height="10" width="10" y="155" x="185"/><rect transform="rotate(0,240,160)" height="10" width="10" y="155" x="235"/><rect transform="rotate(0,260,160)" height="10" width="10" y="155" x="255"/><rect transform="rotate(0,20,170)" height="10" width="10" y="165" x="15"/><rect transform="rotate(0,30,170)" height="10" width="10" y="165" x="25"/><rect transform="rotate(0,70,170)" height="10" width="10" y="165" x="65"/><rect transform="rotate(0,80,170)" height="10" width="10" y="165" x="75"/><rect transform="rotate(0,100,170)" height="10" width="10" y="165" x="95"/><rect transform="rotate(0,140,170)" height="10" width="10" y="165" x="135"/><rect transform="rotate(0,190,170)" height="10" width="10" y="165" x="185"/><rect transform="rotate(0,200,170)" height="10" width="10" y="165" x="195"/><rect transform="rotate(0,210,170)" height="10" width="10" y="165" x="205"/><rect transform="rotate(0,10,180)" height="10" width="10" y="175" x="5"/><rect transform="rotate(0,20,180)" height="10" width="10" y="175" x="15"/><rect transform="rotate(0,50,180)" height="10" width="10" y="175" x="45"/><rect transform="rotate(0,60,180)" height="10" width="10" y="175" x="55"/><rect transform="rotate(0,80,180)" height="10" width="10" y="175" x="75"/><rect transform="rotate(0,110,180)" height="10" width="10" y="175" x="105"/><rect transform="rotate(0,120,180)" height="10" width="10" y="175" x="115"/><rect transform="rotate(0,140,180)" height="10" width="10" y="175" x="135"/><rect transform="rotate(0,150,180)" height="10" width="10" y="175" x="145"/><rect transform="rotate(0,170,180)" height="10" width="10" y="175" x="165"/><rect transform="rotate(0,180,180)" height="10" width="10" y="175" x="175"/><rect transform="rotate(0,230,180)" height="10" width="10" y="175" x="225"/><rect transform="rotate(0,240,180)" height="10" width="10" y="175" x="235"/><rect transform="rotate(0,250,180)" height="10" width="10" y="175" x="245"/><rect transform="rotate(0,260,180)" height="10" width="10" y="175" x="255"/><rect transform="rotate(0,290,180)" height="10" width="10" y="175" x="285"/><rect transform="rotate(0,40,190)" height="10" width="10" y="185" x="35"/><rect transform="rotate(0,50,190)" height="10" width="10" y="185" x="45"/><rect transform="rotate(0,60,190)" height="10" width="10" y="185" x="55"/><rect transform="rotate(0,70,190)" height="10" width="10" y="185" x="65"/><rect transform="rotate(0,90,190)" height="10" width="10" y="185" x="85"/><rect transform="rotate(0,100,190)" height="10" width="10" y="185" x="95"/><rect transform="rotate(0,110,190)" height="10" width="10" y="185" x="105"/><rect transform="rotate(0,130,190)" height="10" width="10" y="185" x="125"/><rect transform="rotate(0,140,190)" height="10" width="10" y="185" x="135"/><rect transform="rotate(0,170,190)" height="10" width="10" y="185" x="165"/><rect transform="rotate(0,190,190)" height="10" width="10" y="185" x="185"/><rect transform="rotate(0,210,190)" height="10" width="10" y="185" x="205"/><rect transform="rotate(0,260,190)" height="10" width="10" y="185" x="255"/><rect transform="rotate(0,290,190)" height="10" width="10" y="185" x="285"/><rect transform="rotate(0,40,200)" height="10" width="10" y="195" x="35"/><rect transform="rotate(0,50,200)" height="10" width="10" y="195" x="45"/><rect transform="rotate(0,60,200)" height="10" width="10" y="195" x="55"/><rect transform="rotate(0,90,200)" height="10" width="10" y="195" x="85"/><rect transform="rotate(0,100,200)" height="10" width="10" y="195" x="95"/><rect transform="rotate(0,110,200)" height="10" width="10" y="195" x="105"/><rect transform="rotate(0,140,200)" height="10" width="10" y="195" x="135"/><rect transform="rotate(0,150,200)" height="10" width="10" y="195" x="145"/><rect transform="rotate(0,180,200)" height="10" width="10" y="195" x="175"/><rect transform="rotate(0,190,200)" height="10" width="10" y="195" x="185"/><rect transform="rotate(0,200,200)" height="10" width="10" y="195" x="195"/><rect transform="rotate(0,240,200)" height="10" width="10" y="195" x="235"/><rect transform="rotate(0,250,200)" height="10" width="10" y="195" x="245"/><rect transform="rotate(0,260,200)" height="10" width="10" y="195" x="255"/><rect transform="rotate(0,10,210)" height="10" width="10" y="205" x="5"/><rect transform="rotate(0,20,210)" height="10" width="10" y="205" x="15"/><rect transform="rotate(0,40,210)" height="10" width="10" y="205" x="35"/><rect transform="rotate(0,50,210)" height="10" width="10" y="205" x="45"/><rect transform="rotate(0,60,210)" height="10" width="10" y="205" x="55"/><rect transform="rotate(0,70,210)" height="10" width="10" y="205" x="65"/><rect transform="rotate(0,110,210)" height="10" width="10" y="205" x="105"/><rect transform="rotate(0,150,210)" height="10" width="10" y="205" x="145"/><rect transform="rotate(0,160,210)" height="10" width="10" y="205" x="155"/><rect transform="rotate(0,180,210)" height="10" width="10" y="205" x="175"/><rect transform="rotate(0,200,210)" height="10" width="10" y="205" x="195"/><rect transform="rotate(0,210,210)" height="10" width="10" y="205" x="205"/><rect transform="rotate(0,220,210)" height="10" width="10" y="205" x="215"/><rect transform="rotate(0,230,210)" height="10" width="10" y="205" x="225"/><rect transform="rotate(0,240,210)" height="10" width="10" y="205" x="235"/><rect transform="rotate(0,250,210)" height="10" width="10" y="205" x="245"/><rect transform="rotate(0,260,210)" height="10" width="10" y="205" x="255"/><rect transform="rotate(0,290,210)" height="10" width="10" y="205" x="285"/><rect transform="rotate(0,90,220)" height="10" width="10" y="215" x="85"/><rect transform="rotate(0,110,220)" height="10" width="10" y="215" x="105"/><rect transform="rotate(0,120,220)" height="10" width="10" y="215" x="115"/><rect transform="rotate(0,150,220)" height="10" width="10" y="215" x="145"/><rect transform="rotate(0,160,220)" height="10" width="10" y="215" x="155"/><rect transform="rotate(0,180,220)" height="10" width="10" y="215" x="175"/><rect transform="rotate(0,190,220)" height="10" width="10" y="215" x="185"/><rect transform="rotate(0,210,220)" height="10" width="10" y="215" x="205"/><rect transform="rotate(0,250,220)" height="10" width="10" y="215" x="245"/><rect transform="rotate(0,270,220)" height="10" width="10" y="215" x="265"/><rect transform="rotate(0,280,220)" height="10" width="10" y="215" x="275"/><rect transform="rotate(0,290,220)" height="10" width="10" y="215" x="285"/><rect transform="rotate(0,120,230)" height="10" width="10" y="225" x="115"/><rect transform="rotate(0,130,230)" height="10" width="10" y="225" x="125"/><rect transform="rotate(0,140,230)" height="10" width="10" y="225" x="135"/><rect transform="rotate(0,160,230)" height="10" width="10" y="225" x="155"/><rect transform="rotate(0,190,230)" height="10" width="10" y="225" x="185"/><rect transform="rotate(0,200,230)" height="10" width="10" y="225" x="195"/><rect transform="rotate(0,210,230)" height="10" width="10" y="225" x="205"/><rect transform="rotate(0,230,230)" height="10" width="10" y="225" x="225"/><rect transform="rotate(0,250,230)" height="10" width="10" y="225" x="245"/><rect transform="rotate(0,290,230)" height="10" width="10" y="225" x="285"/><rect transform="rotate(0,100,240)" height="10" width="10" y="235" x="95"/><rect transform="rotate(0,110,240)" height="10" width="10" y="235" x="105"/><rect transform="rotate(0,130,240)" height="10" width="10" y="235" x="125"/><rect transform="rotate(0,140,240)" height="10" width="10" y="235" x="135"/><rect transform="rotate(0,150,240)" height="10" width="10" y="235" x="145"/><rect transform="rotate(0,160,240)" height="10" width="10" y="235" x="155"/><rect transform="rotate(0,200,240)" height="10" width="10" y="235" x="195"/><rect transform="rotate(0,210,240)" height="10" width="10" y="235" x="205"/><rect transform="rotate(0,250,240)" height="10" width="10" y="235" x="245"/><rect transform="rotate(0,260,240)" height="10" width="10" y="235" x="255"/><rect transform="rotate(0,290,240)" height="10" width="10" y="235" x="285"/><rect transform="rotate(0,90,250)" height="10" width="10" y="245" x="85"/><rect transform="rotate(0,120,250)" height="10" width="10" y="245" x="115"/><rect transform="rotate(0,140,250)" height="10" width="10" y="245" x="135"/><rect transform="rotate(0,150,250)" height="10" width="10" y="245" x="145"/><rect transform="rotate(0,170,250)" height="10" width="10" y="245" x="165"/><rect transform="rotate(0,200,250)" height="10" width="10" y="245" x="195"/><rect transform="rotate(0,210,250)" height="10" width="10" y="245" x="205"/><rect transform="rotate(0,220,250)" height="10" width="10" y="245" x="215"/><rect transform="rotate(0,230,250)" height="10" width="10" y="245" x="225"/><rect transform="rotate(0,240,250)" height="10" width="10" y="245" x="235"/><rect transform="rotate(0,250,250)" height="10" width="10" y="245" x="245"/><rect transform="rotate(0,280,250)" height="10" width="10" y="245" x="275"/><rect transform="rotate(0,290,250)" height="10" width="10" y="245" x="285"/><rect transform="rotate(0,110,260)" height="10" width="10" y="255" x="105"/><rect transform="rotate(0,120,260)" height="10" width="10" y="255" x="115"/><rect transform="rotate(0,130,260)" height="10" width="10" y="255" x="125"/><rect transform="rotate(0,150,260)" height="10" width="10" y="255" x="145"/><rect transform="rotate(0,190,260)" height="10" width="10" y="255" x="185"/><rect transform="rotate(0,240,260)" height="10" width="10" y="255" x="235"/><rect transform="rotate(0,280,260)" height="10" width="10" y="255" x="275"/><rect transform="rotate(0,100,270)" height="10" width="10" y="265" x="95"/><rect transform="rotate(0,130,270)" height="10" width="10" y="265" x="125"/><rect transform="rotate(0,140,270)" height="10" width="10" y="265" x="135"/><rect transform="rotate(0,150,270)" height="10" width="10" y="265" x="145"/><rect transform="rotate(0,160,270)" height="10" width="10" y="265" x="155"/><rect transform="rotate(0,180,270)" height="10" width="10" y="265" x="175"/><rect transform="rotate(0,190,270)" height="10" width="10" y="265" x="185"/><rect transform="rotate(0,200,270)" height="10" width="10" y="265" x="195"/><rect transform="rotate(0,210,270)" height="10" width="10" y="265" x="205"/><rect transform="rotate(0,220,270)" height="10" width="10" y="265" x="215"/><rect transform="rotate(0,280,270)" height="10" width="10" y="265" x="275"/><rect transform="rotate(0,290,270)" height="10" width="10" y="265" x="285"/><rect transform="rotate(0,90,280)" height="10" width="10" y="275" x="85"/><rect transform="rotate(0,100,280)" height="10" width="10" y="275" x="95"/><rect transform="rotate(0,130,280)" height="10" width="10" y="275" x="125"/><rect transform="rotate(0,160,280)" height="10" width="10" y="275" x="155"/><rect transform="rotate(0,170,280)" height="10" width="10" y="275" x="165"/><rect transform="rotate(0,180,280)" height="10" width="10" y="275" x="175"/><rect transform="rotate(0,210,280)" height="10" width="10" y="275" x="205"/><rect transform="rotate(0,240,280)" height="10" width="10" y="275" x="235"/><rect transform="rotate(0,260,280)" height="10" width="10" y="275" x="255"/><rect transform="rotate(0,280,280)" height="10" width="10" y="275" x="275"/><rect transform="rotate(0,290,280)" height="10" width="10" y="275" x="285"/><rect transform="rotate(0,100,290)" height="10" width="10" y="285" x="95"/><rect transform="rotate(0,120,290)" height="10" width="10" y="285" x="115"/><rect transform="rotate(0,140,290)" height="10" width="10" y="285" x="135"/><rect transform="rotate(0,180,290)" height="10" width="10" y="285" x="175"/><rect transform="rotate(0,210,290)" height="10" width="10" y="285" x="205"/><rect transform="rotate(0,230,290)" height="10" width="10" y="285" x="225"/><rect transform="rotate(0,250,290)" height="10" width="10" y="285" x="245"/><rect transform="rotate(0,260,290)" height="10" width="10" y="285" x="255"/><rect transform="rotate(0,280,290)" height="10" width="10" y="285" x="275"/></clipPath><clipPath id="clip-path-corners-square-color-0-0-8"><path transform="rotate(0,40,40)" d="M 5 30v 20a 25 25, 0, 0, 0, 25 25h 20a 25 25, 0, 0, 0, 25 -25v -20a 25 25, 0, 0, 0, -25 -25h -20a 25 25, 0, 0, 0, -25 25M 30 15h 20a 15 15, 0, 0, 1, 15 15v 20a 15 15, 0, 0, 1, -15 15h -20a 15 15, 0, 0, 1, -15 -15v -20a 15 15, 0, 0, 1, 15 -15" clip-rule="evenodd"/></clipPath><clipPath id="clip-path-corners-dot-color-0-0-8"><rect transform="rotate(0,30,30)" height="10" width="10" y="25" x="25"/><rect transform="rotate(0,40,30)" height="10" width="10" y="25" x="35"/><rect transform="rotate(0,50,30)" height="10" width="10" y="25" x="45"/><rect transform="rotate(0,30,40)" height="10" width="10" y="35" x="25"/><rect transform="rotate(0,40,40)" height="10" width="10" y="35" x="35"/><rect transform="rotate(0,50,40)" height="10" width="10" y="35" x="45"/><rect transform="rotate(0,30,50)" height="10" width="10" y="45" x="25"/><rect transform="rotate(0,40,50)" height="10" width="10" y="45" x="35"/><rect transform="rotate(0,50,50)" height="10" width="10" y="45" x="45"/></clipPath><clipPath id="clip-path-corners-square-color-1-0-8"><path transform="rotate(90,260,40)" d="M 225 30v 20a 25 25, 0, 0, 0, 25 25h 20a 25 25, 0, 0, 0, 25 -25v -20a 25 25, 0, 0, 0, -25 -25h -20a 25 25, 0, 0, 0, -25 25M 250 15h 20a 15 15, 0, 0, 1, 15 15v 20a 15 15, 0, 0, 1, -15 15h -20a 15 15, 0, 0, 1, -15 -15v -20a 15 15, 0, 0, 1, 15 -15" clip-rule="evenodd"/></clipPath><clipPath id="clip-path-corners-dot-color-1-0-8"><rect transform="rotate(0,250,30)" height="10" width="10" y="25" x="245"/><rect transform="rotate(0,260,30)" height="10" width="10" y="25" x="255"/><rect transform="rotate(0,270,30)" height="10" width="10" y="25" x="265"/><rect transform="rotate(0,250,40)" height="10" width="10" y="35" x="245"/><rect transform="rotate(0,260,40)" height="10" width="10" y="35" x="255"/><rect transform="rotate(0,270,40)" height="10" width="10" y="35" x="265"/><rect transform="rotate(0,250,50)" height="10" width="10" y="45" x="245"/><rect transform="rotate(0,260,50)" height="10" width="10" y="45" x="255"/><rect transform="rotate(0,270,50)" height="10" width="10" y="45" x="265"/></clipPath><clipPath id="clip-path-corners-square-color-0-1-8"><path transform="rotate(-90,40,260)" d="M 5 250v 20a 25 25, 0, 0, 0, 25 25h 20a 25 25, 0, 0, 0, 25 -25v -20a 25 25, 0, 0, 0, -25 -25h -20a 25 25, 0, 0, 0, -25 25M 30 235h 20a 15 15, 0, 0, 1, 15 15v 20a 15 15, 0, 0, 1, -15 15h -20a 15 15, 0, 0, 1, -15 -15v -20a 15 15, 0, 0, 1, 15 -15" clip-rule="evenodd"/></clipPath><clipPath id="clip-path-corners-dot-color-0-1-8"><rect transform="rotate(0,30,250)" height="10" width="10" y="245" x="25"/><rect transform="rotate(0,40,250)" height="10" width="10" y="245" x="35"/><rect transform="rotate(0,50,250)" height="10" width="10" y="245" x="45"/><rect transform="rotate(0,30,260)" height="10" width="10" y="255" x="25"/><rect transform="rotate(0,40,260)" height="10" width="10" y="255" x="35"/><rect transform="rotate(0,50,260)" height="10" width="10" y="255" x="45"/><rect transform="rotate(0,30,270)" height="10" width="10" y="265" x="25"/><rect transform="rotate(0,40,270)" height="10" width="10" y="265" x="35"/><rect transform="rotate(0,50,270)" height="10" width="10" y="265" x="45"/></clipPath></defs><rect fill="#ffffff" clip-path="url('#clip-path-background-color-8')" width="300" height="300" y="0" x="0"/><rect fill="#6a1a4c" clip-path="url('#clip-path-dot-color-8')" width="300" height="300" y="0" x="0"/><rect fill="#000000" clip-path="url('#clip-path-corners-square-color-0-0-8')" width="70" height="70" y="5" x="5"/><rect fill="#000000" clip-path="url('#clip-path-corners-dot-color-0-0-8')" width="30" height="30" y="25" x="25"/><rect fill="#000000" clip-path="url('#clip-path-corners-square-color-1-0-8')" width="70" height="70" y="5" x="225"/><rect fill="#000000" clip-path="url('#clip-path-corners-dot-color-1-0-8')" width="30" height="30" y="25" x="245"/><rect fill="#000000" clip-path="url('#clip-path-corners-square-color-0-1-8')" width="70" height="70" y="225" x="5"/><rect fill="#000000" clip-path="url('#clip-path-corners-dot-color-0-1-8')" width="30" height="30" y="245" x="25"/></svg>