<svg viewBox="157.1928 157.0728 141.6 140.4" xmlns:xlink="http://www.w3.org/1999/xlink" xmlns="http://www.w3.org/2000/svg" style="max-height: 500px" width="141.6" height="140.4"><defs><clipPath id="clip-path-background-color-75"><rect height="300" width="300" y="0" x="0"/></clipPath><clipPath id="clip-path-dot-color-75"><path transform="rotate(90,136,10)" d="M 129 3v 7a 7 7, 0, 0, 0, 7 7h 7v -7a 7 7, 0, 0, 0, -7 -7"/><path transform="rotate(90,178,10)" d="M 171 3v 7a 7 7, 0, 0, 0, 7 7h 7v -7a 7 7, 0, 0, 0, -7 -7"/><path transform="rotate(-90,150,24)" d="M 143 17v 14h 14v -7a 7 7, 0, 0, 0, -7 -7"/><rect transform="rotate(0,164,24)" height="14" width="14" y="17" x="157"/><path transform="rotate(-90,122,38)" d="M 115 31v 14h 14v -7a 7 7, 0, 0, 0, -7 -7"/><rect transform="rotate(0,164,38)" height="14" width="14" y="31" x="157"/><path transform="rotate(90,178,38)" d="M 171 31v 14h 14v -7a 7 7, 0, 0, 0, -7 -7"/><rect transform="rotate(0,122,52)" height="14" width="14" y="45" x="115"/><rect transform="rotate(0,136,52)" height="14" width="14" y="45" x="129"/><rect transform="rotate(0,136,66)" height="14" width="14" y="59" x="129"/><rect transform="rotate(0,150,66)" height="14" width="14" y="59" x="143"/><rect transform="rotate(0,164,66)" height="14" width="14" y="59" x="157"/><rect transform="rotate(0,150,80)" height="14" width="14" y="73" x="143"/><rect transform="rotate(0,164,80)" height="14" width="14" y="73" x="157"/><rect transform="rotate(0,178,80)" height="14" width="14" y="73" x="171"/><path transform="rotate(90,122,94)" d="M 115 87v 7a 7 7, 0, 0, 0, 7 7h 7v -7a 7 7, 0, 0, 0, -7 -7"/><rect transform="rotate(0,150,94)" height="14" width="14" y="87" x="143"/><rect transform="rotate(0,178,94)" height="14" width="14" y="87" x="171"/><path transform="rotate(-90,136,108)" d="M 129 101v 14h 14v -7a 7 7, 0, 0, 0, -7 -7"/><rect transform="rotate(0,150,108)" height="14" width="14" y="101" x="143"/><rect transform="rotate(0,164,108)" height="14" width="14" y="101" x="157"/><path transform="rotate(90,178,108)" d="M 171 101v 14h 14v -7a 7 7, 0, 0, 0, -7 -7"/><path transform="rotate(-90,52,122)" d="M 45 115v 14h 14v -7a 7 7, 0, 0, 0, -7 -7"/><rect transform="rotate(0,66,122)" height="14" width="14" y="115" x="59"/><path transform="rotate(-90,94,122)" d="M 87 115v 14h 14v -7a 7 7, 0, 0, 0, -7 -7"/><path transform="rotate(90,108,122)" d="M 101 115v 14h 14v -7a 7 7, 0, 0, 0, -7 -7"/><path transform="rotate(90,136,122)" d="M 129 115v 14h 14v -7a 7 7, 0, 0, 0, -7 -7"/><rect transform="rotate(0,164,122)" height="14" width="14" y="115" x="157"/><path transform="rotate(-90,248,122)" d="M 241 115v 14h 14v -7a 7 7, 0, 0, 0, -7 -7"/><path transform="rotate(90,262,122)" d="M 255 115v 14h 14v -7a 7 7, 0, 0, 0, -7 -7"/><path transform="rotate(-90,10,136)" d="M 3 129v 14h 14v -7a 7 7, 0, 0, 0, -7 -7"/><rect transform="rotate(0,24,136)" height="14" width="14" y="129" x="17"/><rect transform="rotate(0,66,136)" height="14" width="14" y="129" x="59"/><rect transform="rotate(0,80,136)" height="14" width="14" y="129" x="73"/><path transform="rotate(-90,122,136)" d="M 115 129v 14h 14v -7a 7 7, 0, 0, 0, -7 -7"/><path transform="rotate(-90,150,136)" d="M 143 129v 14h 14v -7a 7 7, 0, 0, 0, -7 -7"/><rect transform="rotate(0,164,136)" height="14" width="14" y="129" x="157"/><path transform="rotate(90,178,136)" d="M 171 129v 14h 14v -7a 7 7, 0, 0, 0, -7 -7"/><path transform="rotate(-90,206,136)" d="M 199 129v 14h 14v -7a 7 7, 0, 0, 0, -7 -7"/><rect transform="rotate(0,220,136)" height="14" width="14" y="129" x="213"/><rect transform="rotate(0,234,136)" height="14" width="14" y="129" x="227"/><rect transform="rotate(0,248,136)" height="14" width="14" y="129" x="241"/><path transform="rotate(-90,290,136)" d="M 283 129v 14h 14v -7a 7 7, 0, 0, 0, -7 -7"/><rect transform="rotate(0,24,150)" height="14" width="14" y="143" x="17"/><rect transform="rotate(0,38,150)" height="14" width="14" y="143" x="31"/><path transform="rotate(90,52,150)" d="M 45 143v 14h 14v -7a 7 7, 0, 0, 0, -7 -7"/><rect transform="rotate(0,80,150)" height="14" width="14" y="143" x="73"/><path transform="rotate(90,94,150)" d="M 87 143v 14h 14v -7a 7 7, 0, 0, 0, -7 -7"/><path transform="rotate(90,122,150)" d="M 115 143v 14h 14v -7a 7 7, 0, 0, 0, -7 -7"/><path transform="rotate(90,150,150)" d="M 143 143v 14h 14v -7a 7 7, 0, 0, 0, -7 -7"/><rect transform="rotate(0,220,150)" height="14" width="14" y="143" x="213"/><path transform="rotate(90,248,150)" d="M 241 143v 14h 14v -7a 7 7, 0, 0, 0, -7 -7"/><path transform="rotate(90,290,150)" d="M 283 143v 14h 14v -7a 7 7, 0, 0, 0, -7 -7"/><path transform="rotate(90,24,164)" d="M 17 157v 14h 14v -7a 7 7, 0, 0, 0, -7 -7"/><path transform="rotate(-90,66,164)" d="M 59 157v 14h 14v -7a 7 7, 0, 0, 0, -7 -7"/><rect transform="rotate(0,80,164)" height="14" width="14" y="157" x="73"/><path transform="rotate(-90,108,164)" d="M 101 157v 14h 14v -7a 7 7, 0, 0, 0, -7 -7"/><path transform="rotate(-90,192,164)" d="M 185 157v 14h 14v -7a 7 7, 0, 0, 0, -7 -7"/><rect transform="rotate(0,206,164)" height="14" width="14" y="157" x="199"/><rect transform="rotate(0,220,164)" height="14" width="14" y="157" x="213"/><rect transform="rotate(0,234,164)" height="14" width="14" y="157" x="227"/><path transform="rotate(-90,276,164)" d="M 269 157v 14h 14v -7a 7 7, 0, 0, 0, -7 -7"/><path transform="rotate(90,10,178)" d="M 3 171v 7a 7 7, 0, 0, 0, 7 7h 7v -7a 7 7, 0, 0, 0, -7 -7"/><path transform="rotate(-90,52,178)" d="M 45 171v 14h 14v -7a 7 7, 0, 0, 0, -7 -7"/><rect transform="rotate(0,66,178)" height="14" width="14" y="171" x="59"/><rect transform="rotate(0,80,178)" height="14" width="14" y="171" x="73"/><rect transform="rotate(0,94,178)" height="14" width="14" y="171" x="87"/><rect transform="rotate(0,108,178)" height="14" width="14" y="171" x="101"/><rect transform="rotate(0,122,178)" height="14" width="14" y="171" x="115"/><path transform="rotate(-90,164,178)" d="M 157 171v 14h 14v -7a 7 7, 0, 0, 0, -7 -7"/><rect transform="rotate(0,192,178)" height="14" width="14" y="171" x="185"/><rect transform="rotate(0,206,178)" height="14" width="14" y="171" x="199"/><rect transform="rotate(0,220,178)" height="14" width="14" y="171" x="213"/><rect transform="rotate(0,234,178)" height="14" width="14" y="171" x="227"/><rect transform="rotate(0,248,178)" height="14" width="14" y="171" x="241"/><rect transform="rotate(0,262,178)" height="14" width="14" y="171" x="255"/><rect transform="rotate(0,276,178)" height="14" width="14" y="171" x="269"/><path transform="rotate(90,290,178)" d="M 283 171v 14h 14v -7a 7 7, 0, 0, 0, -7 -7"/><rect transform="rotate(0,122,192)" height="14" width="14" y="185" x="115"/><rect transform="rotate(0,136,192)" height="14" width="14" y="185" x="129"/><rect transform="rotate(0,150,192)" height="14" width="14" y="185" x="143"/><path transform="rotate(90,164,192)" d="M 157 185v 14h 14v -7a 7 7, 0, 0, 0, -7 -7"/><rect transform="rotate(0,192,192)" height="14" width="14" y="185" x="185"/><path transform="rotate(90,206,192)" d="M 199 185v 14h 14v -7a 7 7, 0, 0, 0, -7 -7"/><rect transform="rotate(0,262,192)" height="14" width="14" y="185" x="255"/><path transform="rotate(90,276,192)" d="M 269 185v 14h 14v -7a 7 7, 0, 0, 0, -7 -7"/><rect transform="rotate(0,122,206)" height="14" width="14" y="199" x="115"/><rect transform="rotate(0,136,206)" height="14" width="14" y="199" x="129"/><path transform="rotate(90,150,206)" d="M 143 199v 14h 14v -7a 7 7, 0, 0, 0, -7 -7"/><path transform="rotate(-90,248,206)" d="M 241 199v 14h 14v -7a 7 7, 0, 0, 0, -7 -7"/><rect transform="rotate(0,262,206)" height="14" width="14" y="199" x="255"/><path transform="rotate(90,178,220)" d="M 171 213v 7a 7 7, 0, 0, 0, 7 7h 7v -7a 7 7, 0, 0, 0, -7 -7"/><rect transform="rotate(0,262,220)" height="14" width="14" y="213" x="255"/><rect transform="rotate(0,276,220)" height="14" width="14" y="213" x="269"/><rect transform="rotate(0,290,220)" height="14" width="14" y="213" x="283"/><path transform="rotate(-90,122,234)" d="M 115 227v 14h 14v -7a 7 7, 0, 0, 0, -7 -7"/><path transform="rotate(-90,150,234)" d="M 143 227v 14h 14v -7a 7 7, 0, 0, 0, -7 -7"/><path transform="rotate(90,164,234)" d="M 157 227v 14h 14v -7a 7 7, 0, 0, 0, -7 -7"/><path transform="rotate(-90,206,234)" d="M 199 227v 14h 14v -7a 7 7, 0, 0, 0, -7 -7"/><path transform="rotate(-90,234,234)" d="M 227 227v 14h 14v -7a 7 7, 0, 0, 0, -7 -7"/><path transform="rotate(90,262,234)" d="M 255 227v 14h 14v -7a 7 7, 0, 0, 0, -7 -7"/><path transform="rotate(90,290,234)" d="M 283 227v 14h 14v -7a 7 7, 0, 0, 0, -7 -7"/><rect transform="rotate(0,122,248)" height="14" width="14" y="241" x="115"/><rect transform="rotate(0,136,248)" height="14" width="14" y="241" x="129"/><rect transform="rotate(0,206,248)" height="14" width="14" y="241" x="199"/><rect transform="rotate(0,220,248)" height="14" width="14" y="241" x="213"/><rect transform="rotate(0,234,248)" height="14" width="14" y="241" x="227"/><rect transform="rotate(0,136,262)" height="14" width="14" y="255" x="129"/><rect transform="rotate(0,150,262)" height="14" width="14" y="255" x="143"/><rect transform="rotate(0,220,262)" height="14" width="14" y="255" x="213"/><rect transform="rotate(0,234,262)" height="14" width="14" y="255" x="227"/><rect transform="rotate(0,248,262)" height="14" width="14" y="255" x="241"/><path transform="rotate(-90,276,262)" d="M 269 255v 14h 14v -7a 7 7, 0, 0, 0, -7 -7"/><rect transform="rotate(0,290,262)" height="14" width="14" y="255" x="283"/><rect transform="rotate(0,136,276)" height="14" width="14" y="269" x="129"/><rect transform="rotate(0,150,276)" height="14" width="14" y="269" x="143"/><path transform="rotate(90,164,276)" d="M 157 269v 14h 14v -7a 7 7, 0, 0, 0, -7 -7"/><path transform="rotate(90,192,276)" d="M 185 269v 7a 7 7, 0, 0, 0, 7 7h 7v -7a 7 7, 0, 0, 0, -7 -7"/><rect transform="rotate(0,220,276)" height="14" width="14" y="269" x="213"/><path transform="rotate(90,248,276)" d="M 241 269v 14h 14v -7a 7 7, 0, 0, 0, -7 -7"/><rect transform="rotate(0,276,276)" height="14" width="14" y="269" x="269"/><path transform="rotate(90,290,276)" d="M 283 269v 14h 14v -7a 7 7, 0, 0, 0, -7 -7"/><path transform="rotate(90,136,290)" d="M 129 283v 14h 14v -7a 7 7, 0, 0, 0, -7 -7"/><path transform="rotate(90,178,290)" d="M 171 283v 7a 7 7, 0, 0, 0, 7 7h 7v -7a 7 7, 0, 0, 0, -7 -7"/><rect transform="rotate(0,220,290)" height="14" width="14" y="283" x="213"/><path transform="rotate(90,234,290)" d="M 227 283v 14h 14v -7a 7 7, 0, 0, 0, -7 -7"/><path transform="rotate(90,262,290)" d="M 255 283v 7a 7 7, 0, 0, 0, 7 7h 7v -7a 7 7, 0, 0, 0, -7 -7"/></clipPath><clipPath id="clip-path-corners-square-color-0-0-75"><path transform="rotate(-90,10,10)" d="M 3 3v 14h 14v -7a 7 7, 0, 0, 0, -7 -7"/><rect transform="rotate(0,24,10)" height="14" width="14" y="3" x="17"/><rect transform="rotate(0,38,10)" height="14" width="14" y="3" x="31"/><rect transform="rotate(0,52,10)" height="14" width="14" y="3" x="45"/><rect transform="rotate(0,66,10)" height="14" width="14" y="3" x="59"/><rect transform="rotate(0,80,10)" height="14" width="14" y="3" x="73"/><rect transform="rotate(0,94,10)" height="14" width="14" y="3" x="87"/><rect transform="rotate(0,10,24)" height="14" width="14" y="17" x="3"/><rect transform="rotate(0,94,24)" height="14" width="14" y="17" x="87"/><rect transform="rotate(0,10,38)" height="14" width="14" y="31" x="3"/><rect transform="rotate(0,94,38)" height="14" width="14" y="31" x="87"/><rect transform="rotate(0,10,52)" height="14" width="14" y="45" x="3"/><rect transform="rotate(0,94,52)" height="14" width="14" y="45" x="87"/><rect transform="rotate(0,10,66)" height="14" width="14" y="59" x="3"/><rect transform="rotate(0,94,66)" height="14" width="14" y="59" x="87"/><rect transform="rotate(0,10,80)" height="14" width="14" y="73" x="3"/><rect transform="rotate(0,94,80)" height="14" width="14" y="73" x="87"/><rect transform="rotate(0,10,94)" height="14" width="14" y="87" x="3"/><rect transform="rotate(0,24,94)" height="14" width="14" y="87" x="17"/><rect transform="rotate(0,38,94)" height="14" width="14" y="87" x="31"/><rect transform="rotate(0,52,94)" height="14" width="14" y="87" x="45"/><rect transform="rotate(0,66,94)" height="14" width="14" y="87" x="59"/><rect transform="rotate(0,80,94)" height="14" width="14" y="87" x="73"/><path transform="rotate(90,94,94)" d="M 87 87v 14h 14v -7a 7 7, 0, 0, 0, -7 -7"/></clipPath><clipPath id="clip-path-corners-dot-color-0-0-75"><path transform="rotate(-90,38,38)" d="M 31 31v 14h 14v -7a 7 7, 0, 0, 0, -7 -7"/><rect transform="rotate(0,52,38)" height="14" width="14" y="31" x="45"/><rect transform="rotate(0,66,38)" height="14" width="14" y="31" x="59"/><rect transform="rotate(0,38,52)" height="14" width="14" y="45" x="31"/><rect transform="rotate(0,52,52)" height="14" width="14" y="45" x="45"/><rect transform="rotate(0,66,52)" height="14" width="14" y="45" x="59"/><rect transform="rotate(0,38,66)" height="14" width="14" y="59" x="31"/><rect transform="rotate(0,52,66)" height="14" width="14" y="59" x="45"/><path transform="rotate(90,66,66)" d="M 59 59v 14h 14v -7a 7 7, 0, 0, 0, -7 -7"/></clipPath><clipPath id="clip-path-corners-square-color-1-0-75"><path transform="rotate(-90,206,10)" d="M 199 3v 14h 14v -7a 7 7, 0, 0, 0, -7 -7"/><rect transform="rotate(0,220,10)" height="14" width="14" y="3" x="213"/><rect transform="rotate(0,234,10)" height="14" width="14" y="3" x="227"/><rect transform="rotate(0,248,10)" height="14" width="14" y="3" x="241"/><rect transform="rotate(0,262,10)" height="14" width="14" y="3" x="255"/><rect transform="rotate(0,276,10)" height="14" width="14" y="3" x="269"/><rect transform="rotate(0,290,10)" height="14" width="14" y="3" x="283"/><rect transform="rotate(0,206,24)" height="14" width="14" y="17" x="199"/><rect transform="rotate(0,290,24)" height="14" width="14" y="17" x="283"/><rect transform="rotate(0,206,38)" height="14" width="14" y="31" x="199"/><rect transform="rotate(0,290,38)" height="14" width="14" y="31" x="283"/><rect transform="rotate(0,206,52)" height="14" width="14" y="45" x="199"/><rect transform="rotate(0,290,52)" height="14" width="14" y="45" x="283"/><rect transform="rotate(0,206,66)" height="14" width="14" y="59" x="199"/><rect transform="rotate(0,290,66)" height="14" width="14" y="59" x="283"/><rect transform="rotate(0,206,80)" height="14" width="14" y="73" x="199"/><rect transform="rotate(0,290,80)" height="14" width="14" y="73" x="283"/><rect transform="rotate(0,206,94)" height="14" width="14" y="87" x="199"/><rect transform="rotate(0,220,94)" height="14" width="14" y="87" x="213"/><rect transform="rotate(0,234,94)" height="14" width="14" y="87" x="227"/><rect transform="rotate(0,248,94)" height="14" width="14" y="87" x="241"/><rect transform="rotate(0,262,94)" height="14" width="14" y="87" x="255"/><rect transform="rotate(0,276,94)" height="14" width="14" y="87" x="269"/><path transform="rotate(90,290,94)" d="M 283 87v 14h 14v -7a 7 7, 0, 0, 0, -7 -7"/></clipPath><clipPath id="clip-path-corners-dot-color-1-0-75"><path transform="rotate(-90,234,38)" d="M 227 31v 14h 14v -7a 7 7, 0, 0, 0, -7 -7"/><rect transform="rotate(0,248,38)" height="14" width="14" y="31" x="241"/><rect transform="rotate(0,262,38)" height="14" width="14" y="31" x="255"/><rect transform="rotate(0,234,52)" height="14" width="14" y="45" x="227"/><rect transform="rotate(0,248,52)" height="14" width="14" y="45" x="241"/><rect transform="rotate(0,262,52)" height="14" width="14" y="45" x="255"/><rect transform="rotate(0,234,66)" height="14" width="14" y="59" x="227"/><rect transform="rotate(0,248,66)" height="14" width="14" y="59" x="241"/><path transform="rotate(90,262,66)" d="M 255 59v 14h 14v -7a 7 7, 0, 0, 0, -7 -7"/></clipPath><clipPath id="clip-path-corners-square-color-0-1-75"><path transform="rotate(-90,10,206)" d="M 3 199v 14h 14v -7a 7 7, 0, 0, 0, -7 -7"/><rect transform="rotate(0,24,206)" height="14" width="14" y="199" x="17"/><rect transform="rotate(0,38,206)" height="14" width="14" y="199" x="31"/><rect transform="rotate(0,52,206)" height="14" width="14" y="199" x="45"/><rect transform="rotate(0,66,206)" height="14" width="14" y="199" x="59"/><rect transform="rotate(0,80,206)" height="14" width="14" y="199" x="73"/><rect transform="rotate(0,94,206)" height="14" width="14" y="199" x="87"/><rect transform="rotate(0,10,220)" height="14" width="14" y="213" x="3"/><rect transform="rotate(0,94,220)" height="14" width="14" y="213" x="87"/><rect transform="rotate(0,10,234)" height="14" width="14" y="227" x="3"/><rect transform="rotate(0,94,234)" height="14" width="14" y="227" x="87"/><rect transform="rotate(0,10,248)" height="14" width="14" y="241" x="3"/><rect transform="rotate(0,94,248)" height="14" width="14" y="241" x="87"/><rect transform="rotate(0,10,262)" height="14" width="14" y="255" x="3"/><rect transform="rotate(0,94,262)" height="14" width="14" y="255" x="87"/><rect transform="rotate(0,10,276)" height="14" width="14" y="269" x="3"/><rect transform="rotate(0,94,276)" height="14" width="14" y="269" x="87"/><rect transform="rotate(0,10,290)" height="14" width="14" y="283" x="3"/><rect transform="rotate(0,24,290)" height="14" width="14" y="283" x="17"/><rect transform="rotate(0,38,290)" height="14" width="14" y="283" x="31"/><rect transform="rotate(0,52,290)" height="14" width="14" y="283" x="45"/><rect transform="rotate(0,66,290)" height="14" width="14" y="283" x="59"/><rect transform="rotate(0,80,290)" height="14" width="14" y="283" x="73"/><path transform="rotate(90,94,290)" d="M 87 283v 14h 14v -7a 7 7, 0, 0, 0, -7 -7"/></clipPath><clipPath id="clip-path-corners-dot-color-0-1-75"><path transform="rotate(-90,38,234)" d="M 31 227v 14h 14v -7a 7 7, 0, 0, 0, -7 -7"/><rect transform="rotate(0,52,234)" height="14" width="14" y="227" x="45"/><rect transform="rotate(0,66,234)" height="14" width="14" y="227" x="59"/><rect transform="rotate(0,38,248)" height="14" width="14" y="241" x="31"/><rect transform="rotate(0,52,248)" height="14" width="14" y="241" x="45"/><rect transform="rotate(0,66,248)" height="14" width="14" y="241" x="59"/><rect transform="rotate(0,38,262)" height="14" width="14" y="255" x="31"/><rect transform="rotate(0,52,262)" height="14" width="14" y="255" x="45"/><path transform="rotate(90,66,262)" d="M 59 255v 14h 14v -7a 7 7, 0, 0, 0, -7 -7"/></clipPath></defs><rect fill="#ffffff" clip-path="url('#clip-path-background-color-75')" width="300" height="300" y="0" x="0"/><rect fill="#000000" clip-path="url('#clip-path-dot-color-75')" width="300" height="300" y="0" x="0"/><rect fill="#000000" clip-path="url('#clip-path-corners-square-color-0-0-75')" width="98" height="98" y="3" x="3"/><rect fill="#000000" clip-path="url('#clip-path-corners-dot-color-0-0-75')" width="42" height="42" y="31" x="31"/><rect fill="#000000" clip-path="url('#clip-path-corners-square-color-1-0-75')" width="98" height="98" y="3" x="199"/><rect fill="#000000" clip-path="url('#clip-path-corners-dot-color-1-0-75')" width="42" height="42" y="31" x="227"/><rect fill="#000000" clip-path="url('#clip-path-corners-square-color-0-1-75')" width="98" height="98" y="199" x="3"/><rect fill="#000000" clip-path="url('#clip-path-corners-dot-color-0-1-75')" width="42" height="42" y="227" x="31"/></svg>