<svg viewBox="157.1928 157.0728 141.6 140.4" xmlns:xlink="http://www.w3.org/1999/xlink" xmlns="http://www.w3.org/2000/svg" style="max-height: 500px" width="141.6" height="140.4"><defs><clipPath id="clip-path-background-color-72"><rect height="300" width="300" y="0" x="0"/></clipPath><clipPath id="clip-path-dot-color-72"><circle transform="rotate(0,136,10)" r="7" cy="10" cx="136"/><circle transform="rotate(0,178,10)" r="7" cy="10" cx="178"/><circle transform="rotate(0,150,24)" r="7" cy="24" cx="150"/><circle transform="rotate(0,164,24)" r="7" cy="24" cx="164"/><circle transform="rotate(0,122,38)" r="7" cy="38" cx="122"/><circle transform="rotate(0,164,38)" r="7" cy="38" cx="164"/><circle transform="rotate(0,178,38)" r="7" cy="38" cx="178"/><circle transform="rotate(0,122,52)" r="7" cy="52" cx="122"/><circle transform="rotate(0,136,52)" r="7" cy="52" cx="136"/><circle transform="rotate(0,136,66)" r="7" cy="66" cx="136"/><circle transform="rotate(0,150,66)" r="7" cy="66" cx="150"/><circle transform="rotate(0,164,66)" r="7" cy="66" cx="164"/><circle transform="rotate(0,150,80)" r="7" cy="80" cx="150"/><circle transform="rotate(0,164,80)" r="7" cy="80" cx="164"/><circle transform="rotate(0,178,80)" r="7" cy="80" cx="178"/><circle transform="rotate(0,122,94)" r="7" cy="94" cx="122"/><circle transform="rotate(0,150,94)" r="7" cy="94" cx="150"/><circle transform="rotate(0,178,94)" r="7" cy="94" cx="178"/><circle transform="rotate(0,136,108)" r="7" cy="108" cx="136"/><circle transform="rotate(0,150,108)" r="7" cy="108" cx="150"/><circle transform="rotate(0,164,108)" r="7" cy="108" cx="164"/><circle transform="rotate(0,178,108)" r="7" cy="108" cx="178"/><circle transform="rotate(0,52,122)" r="7" cy="122" cx="52"/><circle transform="rotate(0,66,122)" r="7" cy="122" cx="66"/><circle transform="rotate(0,94,122)" r="7" cy="122" cx="94"/><circle transform="rotate(0,108,122)" r="7" cy="122" cx="108"/><circle transform="rotate(0,136,122)" r="7" cy="122" cx="136"/><circle transform="rotate(0,164,122)" r="7" cy="122" cx="164"/><circle transform="rotate(0,248,122)" r="7" cy="122" cx="248"/><circle transform="rotate(0,262,122)" r="7" cy="122" cx="262"/><circle transform="rotate(0,10,136)" r="7" cy="136" cx="10"/><circle transform="rotate(0,24,136)" r="7" cy="136" cx="24"/><circle transform="rotate(0,66,136)" r="7" cy="136" cx="66"/><circle transform="rotate(0,80,136)" r="7" cy="136" cx="80"/><circle transform="rotate(0,122,136)" r="7" cy="136" cx="122"/><circle transform="rotate(0,150,136)" r="7" cy="136" cx="150"/><circle transform="rotate(0,164,136)" r="7" cy="136" cx="164"/><circle transform="rotate(0,178,136)" r="7" cy="136" cx="178"/><circle transform="rotate(0,206,136)" r="7" cy="136" cx="206"/><circle transform="rotate(0,220,136)" r="7" cy="136" cx="220"/><circle transform="rotate(0,234,136)" r="7" cy="136" cx="234"/><circle transform="rotate(0,248,136)" r="7" cy="136" cx="248"/><circle transform="rotate(0,290,136)" r="7" cy="136" cx="290"/><circle transform="rotate(0,24,150)" r="7" cy="150" cx="24"/><circle transform="rotate(0,38,150)" r="7" cy="150" cx="38"/><circle transform="rotate(0,52,150)" r="7" cy="150" cx="52"/><circle transform="rotate(0,80,150)" r="7" cy="150" cx="80"/><circle transform="rotate(0,94,150)" r="7" cy="150" cx="94"/><circle transform="rotate(0,122,150)" r="7" cy="150" cx="122"/><circle transform="rotate(0,150,150)" r="7" cy="150" cx="150"/><circle transform="rotate(0,220,150)" r="7" cy="150" cx="220"/><circle transform="rotate(0,248,150)" r="7" cy="150" cx="248"/><circle transform="rotate(0,290,150)" r="7" cy="150" cx="290"/><circle transform="rotate(0,24,164)" r="7" cy="164" cx="24"/><circle transform="rotate(0,66,164)" r="7" cy="164" cx="66"/><circle transform="rotate(0,80,164)" r="7" cy="164" cx="80"/><circle transform="rotate(0,108,164)" r="7" cy="164" cx="108"/><circle transform="rotate(0,192,164)" r="7" cy="164" cx="192"/><circle transform="rotate(0,206,164)" r="7" cy="164" cx="206"/><circle transform="rotate(0,220,164)" r="7" cy="164" cx="220"/><circle transform="rotate(0,234,164)" r="7" cy="164" cx="234"/><circle transform="rotate(0,276,164)" r="7" cy="164" cx="276"/><circle transform="rotate(0,10,178)" r="7" cy="178" cx="10"/><circle transform="rotate(0,52,178)" r="7" cy="178" cx="52"/><circle transform="rotate(0,66,178)" r="7" cy="178" cx="66"/><circle transform="rotate(0,80,178)" r="7" cy="178" cx="80"/><circle transform="rotate(0,94,178)" r="7" cy="178" cx="94"/><circle transform="rotate(0,108,178)" r="7" cy="178" cx="108"/><circle transform="rotate(0,122,178)" r="7" cy="178" cx="122"/><circle transform="rotate(0,164,178)" r="7" cy="178" cx="164"/><circle transform="rotate(0,192,178)" r="7" cy="178" cx="192"/><circle transform="rotate(0,206,178)" r="7" cy="178" cx="206"/><circle transform="rotate(0,220,178)" r="7" cy="178" cx="220"/><circle transform="rotate(0,234,178)" r="7" cy="178" cx="234"/><circle transform="rotate(0,248,178)" r="7" cy="178" cx="248"/><circle transform="rotate(0,262,178)" r="7" cy="178" cx="262"/><circle transform="rotate(0,276,178)" r="7" cy="178" cx="276"/><circle transform="rotate(0,290,178)" r="7" cy="178" cx="290"/><circle transform="rotate(0,122,192)" r="7" cy="192" cx="122"/><circle transform="rotate(0,136,192)" r="7" cy="192" cx="136"/><circle transform="rotate(0,150,192)" r="7" cy="192" cx="150"/><circle transform="rotate(0,164,192)" r="7" cy="192" cx="164"/><circle transform="rotate(0,192,192)" r="7" cy="192" cx="192"/><circle transform="rotate(0,206,192)" r="7" cy="192" cx="206"/><circle transform="rotate(0,262,192)" r="7" cy="192" cx="262"/><circle transform="rotate(0,276,192)" r="7" cy="192" cx="276"/><circle transform="rotate(0,122,206)" r="7" cy="206" cx="122"/><circle transform="rotate(0,136,206)" r="7" cy="206" cx="136"/><circle transform="rotate(0,150,206)" r="7" cy="206" cx="150"/><circle transform="rotate(0,248,206)" r="7" cy="206" cx="248"/><circle transform="rotate(0,262,206)" r="7" cy="206" cx="262"/><circle transform="rotate(0,178,220)" r="7" cy="220" cx="178"/><circle transform="rotate(0,262,220)" r="7" cy="220" cx="262"/><circle transform="rotate(0,276,220)" r="7" cy="220" cx="276"/><circle transform="rotate(0,290,220)" r="7" cy="220" cx="290"/><circle transform="rotate(0,122,234)" r="7" cy="234" cx="122"/><circle transform="rotate(0,150,234)" r="7" cy="234" cx="150"/><circle transform="rotate(0,164,234)" r="7" cy="234" cx="164"/><circle transform="rotate(0,206,234)" r="7" cy="234" cx="206"/><circle transform="rotate(0,234,234)" r="7" cy="234" cx="234"/><circle transform="rotate(0,262,234)" r="7" cy="234" cx="262"/><circle transform="rotate(0,290,234)" r="7" cy="234" cx="290"/><circle transform="rotate(0,122,248)" r="7" cy="248" cx="122"/><circle transform="rotate(0,136,248)" r="7" cy="248" cx="136"/><circle transform="rotate(0,206,248)" r="7" cy="248" cx="206"/><circle transform="rotate(0,220,248)" r="7" cy="248" cx="220"/><circle transform="rotate(0,234,248)" r="7" cy="248" cx="234"/><circle transform="rotate(0,136,262)" r="7" cy="262" cx="136"/><circle transform="rotate(0,150,262)" r="7" cy="262" cx="150"/><circle transform="rotate(0,220,262)" r="7" cy="262" cx="220"/><circle transform="rotate(0,234,262)" r="7" cy="262" cx="234"/><circle transform="rotate(0,248,262)" r="7" cy="262" cx="248"/><circle transform="rotate(0,276,262)" r="7" cy="262" cx="276"/><circle transform="rotate(0,290,262)" r="7" cy="262" cx="290"/><circle transform="rotate(0,136,276)" r="7" cy="276" cx="136"/><circle transform="rotate(0,150,276)" r="7" cy="276" cx="150"/><circle transform="rotate(0,164,276)" r="7" cy="276" cx="164"/><circle transform="rotate(0,192,276)" r="7" cy="276" cx="192"/><circle transform="rotate(0,220,276)" r="7" cy="276" cx="220"/><circle transform="rotate(0,248,276)" r="7" cy="276" cx="248"/><circle transform="rotate(0,276,276)" r="7" cy="276" cx="276"/><circle transform="rotate(0,290,276)" r="7" cy="276" cx="290"/><circle transform="rotate(0,136,290)" r="7" cy="290" cx="136"/><circle transform="rotate(0,178,290)" r="7" cy="290" cx="178"/><circle transform="rotate(0,220,290)" r="7" cy="290" cx="220"/><circle transform="rotate(0,234,290)" r="7" cy="290" cx="234"/><circle transform="rotate(0,262,290)" r="7" cy="290" cx="262"/></clipPath><clipPath id="clip-path-corners-square-color-0-0-72"><circle transform="rotate(0,10,10)" r="7" cy="10" cx="10"/><circle transform="rotate(0,24,10)" r="7" cy="10" cx="24"/><circle transform="rotate(0,38,10)" r="7" cy="10" cx="38"/><circle transform="rotate(0,52,10)" r="7" cy="10" cx="52"/><circle transform="rotate(0,66,10)" r="7" cy="10" cx="66"/><circle transform="rotate(0,80,10)" r="7" cy="10" cx="80"/><circle transform="rotate(0,94,10)" r="7" cy="10" cx="94"/><circle transform="rotate(0,10,24)" r="7" cy="24" cx="10"/><circle transform="rotate(0,94,24)" r="7" cy="24" cx="94"/><circle transform="rotate(0,10,38)" r="7" cy="38" cx="10"/><circle transform="rotate(0,94,38)" r="7" cy="38" cx="94"/><circle transform="rotate(0,10,52)" r="7" cy="52" cx="10"/><circle transform="rotate(0,94,52)" r="7" cy="52" cx="94"/><circle transform="rotate(0,10,66)" r="7" cy="66" cx="10"/><circle transform="rotate(0,94,66)" r="7" cy="66" cx="94"/><circle transform="rotate(0,10,80)" r="7" cy="80" cx="10"/><circle transform="rotate(0,94,80)" r="7" cy="80" cx="94"/><circle transform="rotate(0,10,94)" r="7" cy="94" cx="10"/><circle transform="rotate(0,24,94)" r="7" cy="94" cx="24"/><circle transform="rotate(0,38,94)" r="7" cy="94" cx="38"/><circle transform="rotate(0,52,94)" r="7" cy="94" cx="52"/><circle transform="rotate(0,66,94)" r="7" cy="94" cx="66"/><circle transform="rotate(0,80,94)" r="7" cy="94" cx="80"/><circle transform="rotate(0,94,94)" r="7" cy="94" cx="94"/></clipPath><clipPath id="clip-path-corners-dot-color-0-0-72"><circle transform="rotate(0,38,38)" r="7" cy="38" cx="38"/><circle transform="rotate(0,52,38)" r="7" cy="38" cx="52"/><circle transform="rotate(0,66,38)" r="7" cy="38" cx="66"/><circle transform="rotate(0,38,52)" r="7" cy="52" cx="38"/><circle transform="rotate(0,52,52)" r="7" cy="52" cx="52"/><circle transform="rotate(0,66,52)" r="7" cy="52" cx="66"/><circle transform="rotate(0,38,66)" r="7" cy="66" cx="38"/><circle transform="rotate(0,52,66)" r="7" cy="66" cx="52"/><circle transform="rotate(0,66,66)" r="7" cy="66" cx="66"/></clipPath><clipPath id="clip-path-corners-square-color-1-0-72"><circle transform="rotate(0,206,10)" r="7" cy="10" cx="206"/><circle transform="rotate(0,220,10)" r="7" cy="10" cx="220"/><circle transform="rotate(0,234,10)" r="7" cy="10" cx="234"/><circle transform="rotate(0,248,10)" r="7" cy="10" cx="248"/><circle transform="rotate(0,262,10)" r="7" cy="10" cx="262"/><circle transform="rotate(0,276,10)" r="7" cy="10" cx="276"/><circle transform="rotate(0,290,10)" r="7" cy="10" cx="290"/><circle transform="rotate(0,206,24)" r="7" cy="24" cx="206"/><circle transform="rotate(0,290,24)" r="7" cy="24" cx="290"/><circle transform="rotate(0,206,38)" r="7" cy="38" cx="206"/><circle transform="rotate(0,290,38)" r="7" cy="38" cx="290"/><circle transform="rotate(0,206,52)" r="7" cy="52" cx="206"/><circle transform="rotate(0,290,52)" r="7" cy="52" cx="290"/><circle transform="rotate(0,206,66)" r="7" cy="66" cx="206"/><circle transform="rotate(0,290,66)" r="7" cy="66" cx="290"/><circle transform="rotate(0,206,80)" r="7" cy="80" cx="206"/><circle transform="rotate(0,290,80)" r="7" cy="80" cx="290"/><circle transform="rotate(0,206,94)" r="7" cy="94" cx="206"/><circle transform="rotate(0,220,94)" r="7" cy="94" cx="220"/><circle transform="rotate(0,234,94)" r="7" cy="94" cx="234"/><circle transform="rotate(0,248,94)" r="7" cy="94" cx="248"/><circle transform="rotate(0,262,94)" r="7" cy="94" cx="262"/><circle transform="rotate(0,276,94)" r="7" cy="94" cx="276"/><circle transform="rotate(0,290,94)" r="7" cy="94" cx="290"/></clipPath><clipPath id="clip-path-corners-dot-color-1-0-72"><circle transform="rotate(0,234,38)" r="7" cy="38" cx="234"/><circle transform="rotate(0,248,38)" r="7" cy="38" cx="248"/><circle transform="rotate(0,262,38)" r="7" cy="38" cx="262"/><circle transform="rotate(0,234,52)" r="7" cy="52" cx="234"/><circle transform="rotate(0,248,52)" r="7" cy="52" cx="248"/><circle transform="rotate(0,262,52)" r="7" cy="52" cx="262"/><circle transform="rotate(0,234,66)" r="7" cy="66" cx="234"/><circle transform="rotate(0,248,66)" r="7" cy="66" cx="248"/><circle transform="rotate(0,262,66)" r="7" cy="66" cx="262"/></clipPath><clipPath id="clip-path-corners-square-color-0-1-72"><circle transform="rotate(0,10,206)" r="7" cy="206" cx="10"/><circle transform="rotate(0,24,206)" r="7" cy="206" cx="24"/><circle transform="rotate(0,38,206)" r="7" cy="206" cx="38"/><circle transform="rotate(0,52,206)" r="7" cy="206" cx="52"/><circle transform="rotate(0,66,206)" r="7" cy="206" cx="66"/><circle transform="rotate(0,80,206)" r="7" cy="206" cx="80"/><circle transform="rotate(0,94,206)" r="7" cy="206" cx="94"/><circle transform="rotate(0,10,220)" r="7" cy="220" cx="10"/><circle transform="rotate(0,94,220)" r="7" cy="220" cx="94"/><circle transform="rotate(0,10,234)" r="7" cy="234" cx="10"/><circle transform="rotate(0,94,234)" r="7" cy="234" cx="94"/><circle transform="rotate(0,10,248)" r="7" cy="248" cx="10"/><circle transform="rotate(0,94,248)" r="7" cy="248" cx="94"/><circle transform="rotate(0,10,262)" r="7" cy="262" cx="10"/><circle transform="rotate(0,94,262)" r="7" cy="262" cx="94"/><circle transform="rotate(0,10,276)" r="7" cy="276" cx="10"/><circle transform="rotate(0,94,276)" r="7" cy="276" cx="94"/><circle transform="rotate(0,10,290)" r="7" cy="290" cx="10"/><circle transform="rotate(0,24,290)" r="7" cy="290" cx="24"/><circle transform="rotate(0,38,290)" r="7" cy="290" cx="38"/><circle transform="rotate(0,52,290)" r="7" cy="290" cx="52"/><circle transform="rotate(0,66,290)" r="7" cy="290" cx="66"/><circle transform="rotate(0,80,290)" r="7" cy="290" cx="80"/><circle transform="rotate(0,94,290)" r="7" cy="290" cx="94"/></clipPath><clipPath id="clip-path-corners-dot-color-0-1-72"><circle transform="rotate(0,38,234)" r="7" cy="234" cx="38"/><circle transform="rotate(0,52,234)" r="7" cy="234" cx="52"/><circle transform="rotate(0,66,234)" r="7" cy="234" cx="66"/><circle transform="rotate(0,38,248)" r="7" cy="248" cx="38"/><circle transform="rotate(0,52,248)" r="7" cy="248" cx="52"/><circle transform="rotate(0,66,248)" r="7" cy="248" cx="66"/><circle transform="rotate(0,38,262)" r="7" cy="262" cx="38"/><circle transform="rotate(0,52,262)" r="7" cy="262" cx="52"/><circle transform="rotate(0,66,262)" r="7" cy="262" cx="66"/></clipPath></defs><rect fill="#ffffff" clip-path="url('#clip-path-background-color-72')" width="300" height="300" y="0" x="0"/><rect fill="#000000" clip-path="url('#clip-path-dot-color-72')" width="300" height="300" y="0" x="0"/><rect fill="#000000" clip-path="url('#clip-path-corners-square-color-0-0-72')" width="98" height="98" y="3" x="3"/><rect fill="#000000" clip-path="url('#clip-path-corners-dot-color-0-0-72')" width="42" height="42" y="31" x="31"/><rect fill="#000000" clip-path="url('#clip-path-corners-square-color-1-0-72')" width="98" height="98" y="3" x="199"/><rect fill="#000000" clip-path="url('#clip-path-corners-dot-color-1-0-72')" width="42" height="42" y="31" x="227"/><rect fill="#000000" clip-path="url('#clip-path-corners-square-color-0-1-72')" width="98" height="98" y="199" x="3"/><rect fill="#000000" clip-path="url('#clip-path-corners-dot-color-0-1-72')" width="42" height="42" y="227" x="31"/></svg>