<svg viewBox="157.1928 157.0728 141.6 140.4" xmlns:xlink="http://www.w3.org/1999/xlink" xmlns="http://www.w3.org/2000/svg" style="max-height: 500px" width="141.6" height="140.4"><defs><clipPath id="clip-path-background-color-71"><rect height="300" width="300" y="0" x="0"/></clipPath><clipPath id="clip-path-dot-color-71"><rect transform="rotate(0,136,10)" height="14" width="14" y="3" x="129"/><rect transform="rotate(0,178,10)" height="14" width="14" y="3" x="171"/><rect transform="rotate(0,150,24)" height="14" width="14" y="17" x="143"/><rect transform="rotate(0,164,24)" height="14" width="14" y="17" x="157"/><rect transform="rotate(0,122,38)" height="14" width="14" y="31" x="115"/><rect transform="rotate(0,164,38)" height="14" width="14" y="31" x="157"/><rect transform="rotate(0,178,38)" height="14" width="14" y="31" x="171"/><rect transform="rotate(0,122,52)" height="14" width="14" y="45" x="115"/><rect transform="rotate(0,136,52)" height="14" width="14" y="45" x="129"/><rect transform="rotate(0,136,66)" height="14" width="14" y="59" x="129"/><rect transform="rotate(0,150,66)" height="14" width="14" y="59" x="143"/><rect transform="rotate(0,164,66)" height="14" width="14" y="59" x="157"/><rect transform="rotate(0,150,80)" height="14" width="14" y="73" x="143"/><rect transform="rotate(0,164,80)" height="14" width="14" y="73" x="157"/><rect transform="rotate(0,178,80)" height="14" width="14" y="73" x="171"/><rect transform="rotate(0,122,94)" height="14" width="14" y="87" x="115"/><rect transform="rotate(0,150,94)" height="14" width="14" y="87" x="143"/><rect transform="rotate(0,178,94)" height="14" width="14" y="87" x="171"/><rect transform="rotate(0,136,108)" height="14" width="14" y="101" x="129"/><rect transform="rotate(0,150,108)" height="14" width="14" y="101" x="143"/><rect transform="rotate(0,164,108)" height="14" width="14" y="101" x="157"/><rect transform="rotate(0,178,108)" height="14" width="14" y="101" x="171"/><rect transform="rotate(0,52,122)" height="14" width="14" y="115" x="45"/><rect transform="rotate(0,66,122)" height="14" width="14" y="115" x="59"/><rect transform="rotate(0,94,122)" height="14" width="14" y="115" x="87"/><rect transform="rotate(0,108,122)" height="14" width="14" y="115" x="101"/><rect transform="rotate(0,136,122)" height="14" width="14" y="115" x="129"/><rect transform="rotate(0,164,122)" height="14" width="14" y="115" x="157"/><rect transform="rotate(0,248,122)" height="14" width="14" y="115" x="241"/><rect transform="rotate(0,262,122)" height="14" width="14" y="115" x="255"/><rect transform="rotate(0,10,136)" height="14" width="14" y="129" x="3"/><rect transform="rotate(0,24,136)" height="14" width="14" y="129" x="17"/><rect transform="rotate(0,66,136)" height="14" width="14" y="129" x="59"/><rect transform="rotate(0,80,136)" height="14" width="14" y="129" x="73"/><rect transform="rotate(0,122,136)" height="14" width="14" y="129" x="115"/><rect transform="rotate(0,150,136)" height="14" width="14" y="129" x="143"/><rect transform="rotate(0,164,136)" height="14" width="14" y="129" x="157"/><rect transform="rotate(0,178,136)" height="14" width="14" y="129" x="171"/><rect transform="rotate(0,206,136)" height="14" width="14" y="129" x="199"/><rect transform="rotate(0,220,136)" height="14" width="14" y="129" x="213"/><rect transform="rotate(0,234,136)" height="14" width="14" y="129" x="227"/><rect transform="rotate(0,248,136)" height="14" width="14" y="129" x="241"/><rect transform="rotate(0,290,136)" height="14" width="14" y="129" x="283"/><rect transform="rotate(0,24,150)" height="14" width="14" y="143" x="17"/><rect transform="rotate(0,38,150)" height="14" width="14" y="143" x="31"/><rect transform="rotate(0,52,150)" height="14" width="14" y="143" x="45"/><rect transform="rotate(0,80,150)" height="14" width="14" y="143" x="73"/><rect transform="rotate(0,94,150)" height="14" width="14" y="143" x="87"/><rect transform="rotate(0,122,150)" height="14" width="14" y="143" x="115"/><rect transform="rotate(0,150,150)" height="14" width="14" y="143" x="143"/><rect transform="rotate(0,220,150)" height="14" width="14" y="143" x="213"/><rect transform="rotate(0,248,150)" height="14" width="14" y="143" x="241"/><rect transform="rotate(0,290,150)" height="14" width="14" y="143" x="283"/><rect transform="rotate(0,24,164)" height="14" width="14" y="157" x="17"/><rect transform="rotate(0,66,164)" height="14" width="14" y="157" x="59"/><rect transform="rotate(0,80,164)" height="14" width="14" y="157" x="73"/><rect transform="rotate(0,108,164)" height="14" width="14" y="157" x="101"/><rect transform="rotate(0,192,164)" height="14" width="14" y="157" x="185"/><rect transform="rotate(0,206,164)" height="14" width="14" y="157" x="199"/><rect transform="rotate(0,220,164)" height="14" width="14" y="157" x="213"/><rect transform="rotate(0,234,164)" height="14" width="14" y="157" x="227"/><rect transform="rotate(0,276,164)" height="14" width="14" y="157" x="269"/><rect transform="rotate(0,10,178)" height="14" width="14" y="171" x="3"/><rect transform="rotate(0,52,178)" height="14" width="14" y="171" x="45"/><rect transform="rotate(0,66,178)" height="14" width="14" y="171" x="59"/><rect transform="rotate(0,80,178)" height="14" width="14" y="171" x="73"/><rect transform="rotate(0,94,178)" height="14" width="14" y="171" x="87"/><rect transform="rotate(0,108,178)" height="14" width="14" y="171" x="101"/><rect transform="rotate(0,122,178)" height="14" width="14" y="171" x="115"/><rect transform="rotate(0,164,178)" height="14" width="14" y="171" x="157"/><rect transform="rotate(0,192,178)" height="14" width="14" y="171" x="185"/><rect transform="rotate(0,206,178)" height="14" width="14" y="171" x="199"/><rect transform="rotate(0,220,178)" height="14" width="14" y="171" x="213"/><rect transform="rotate(0,234,178)" height="14" width="14" y="171" x="227"/><rect transform="rotate(0,248,178)" height="14" width="14" y="171" x="241"/><rect transform="rotate(0,262,178)" height="14" width="14" y="171" x="255"/><rect transform="rotate(0,276,178)" height="14" width="14" y="171" x="269"/><rect transform="rotate(0,290,178)" height="14" width="14" y="171" x="283"/><rect transform="rotate(0,122,192)" height="14" width="14" y="185" x="115"/><rect transform="rotate(0,136,192)" height="14" width="14" y="185" x="129"/><rect transform="rotate(0,150,192)" height="14" width="14" y="185" x="143"/><rect transform="rotate(0,164,192)" height="14" width="14" y="185" x="157"/><rect transform="rotate(0,192,192)" height="14" width="14" y="185" x="185"/><rect transform="rotate(0,206,192)" height="14" width="14" y="185" x="199"/><rect transform="rotate(0,262,192)" height="14" width="14" y="185" x="255"/><rect transform="rotate(0,276,192)" height="14" width="14" y="185" x="269"/><rect transform="rotate(0,122,206)" height="14" width="14" y="199" x="115"/><rect transform="rotate(0,136,206)" height="14" width="14" y="199" x="129"/><rect transform="rotate(0,150,206)" height="14" width="14" y="199" x="143"/><rect transform="rotate(0,248,206)" height="14" width="14" y="199" x="241"/><rect transform="rotate(0,262,206)" height="14" width="14" y="199" x="255"/><rect transform="rotate(0,178,220)" height="14" width="14" y="213" x="171"/><rect transform="rotate(0,262,220)" height="14" width="14" y="213" x="255"/><rect transform="rotate(0,276,220)" height="14" width="14" y="213" x="269"/><rect transform="rotate(0,290,220)" height="14" width="14" y="213" x="283"/><rect transform="rotate(0,122,234)" height="14" width="14" y="227" x="115"/><rect transform="rotate(0,150,234)" height="14" width="14" y="227" x="143"/><rect transform="rotate(0,164,234)" height="14" width="14" y="227" x="157"/><rect transform="rotate(0,206,234)" height="14" width="14" y="227" x="199"/><rect transform="rotate(0,234,234)" height="14" width="14" y="227" x="227"/><rect transform="rotate(0,262,234)" height="14" width="14" y="227" x="255"/><rect transform="rotate(0,290,234)" height="14" width="14" y="227" x="283"/><rect transform="rotate(0,122,248)" height="14" width="14" y="241" x="115"/><rect transform="rotate(0,136,248)" height="14" width="14" y="241" x="129"/><rect transform="rotate(0,206,248)" height="14" width="14" y="241" x="199"/><rect transform="rotate(0,220,248)" height="14" width="14" y="241" x="213"/><rect transform="rotate(0,234,248)" height="14" width="14" y="241" x="227"/><rect transform="rotate(0,136,262)" height="14" width="14" y="255" x="129"/><rect transform="rotate(0,150,262)" height="14" width="14" y="255" x="143"/><rect transform="rotate(0,220,262)" height="14" width="14" y="255" x="213"/><rect transform="rotate(0,234,262)" height="14" width="14" y="255" x="227"/><rect transform="rotate(0,248,262)" height="14" width="14" y="255" x="241"/><rect transform="rotate(0,276,262)" height="14" width="14" y="255" x="269"/><rect transform="rotate(0,290,262)" height="14" width="14" y="255" x="283"/><rect transform="rotate(0,136,276)" height="14" width="14" y="269" x="129"/><rect transform="rotate(0,150,276)" height="14" width="14" y="269" x="143"/><rect transform="rotate(0,164,276)" height="14" width="14" y="269" x="157"/><rect transform="rotate(0,192,276)" height="14" width="14" y="269" x="185"/><rect transform="rotate(0,220,276)" height="14" width="14" y="269" x="213"/><rect transform="rotate(0,248,276)" height="14" width="14" y="269" x="241"/><rect transform="rotate(0,276,276)" height="14" width="14" y="269" x="269"/><rect transform="rotate(0,290,276)" height="14" width="14" y="269" x="283"/><rect transform="rotate(0,136,290)" height="14" width="14" y="283" x="129"/><rect transform="rotate(0,178,290)" height="14" width="14" y="283" x="171"/><rect transform="rotate(0,220,290)" height="14" width="14" y="283" x="213"/><rect transform="rotate(0,234,290)" height="14" width="14" y="283" x="227"/><rect transform="rotate(0,262,290)" height="14" width="14" y="283" x="255"/></clipPath><clipPath id="clip-path-corners-square-color-0-0-71"><rect transform="rotate(0,10,10)" height="14" width="14" y="3" x="3"/><rect transform="rotate(0,24,10)" height="14" width="14" y="3" x="17"/><rect transform="rotate(0,38,10)" height="14" width="14" y="3" x="31"/><rect transform="rotate(0,52,10)" height="14" width="14" y="3" x="45"/><rect transform="rotate(0,66,10)" height="14" width="14" y="3" x="59"/><rect transform="rotate(0,80,10)" height="14" width="14" y="3" x="73"/><rect transform="rotate(0,94,10)" height="14" width="14" y="3" x="87"/><rect transform="rotate(0,10,24)" height="14" width="14" y="17" x="3"/><rect transform="rotate(0,94,24)" height="14" width="14" y="17" x="87"/><rect transform="rotate(0,10,38)" height="14" width="14" y="31" x="3"/><rect transform="rotate(0,94,38)" height="14" width="14" y="31" x="87"/><rect transform="rotate(0,10,52)" height="14" width="14" y="45" x="3"/><rect transform="rotate(0,94,52)" height="14" width="14" y="45" x="87"/><rect transform="rotate(0,10,66)" height="14" width="14" y="59" x="3"/><rect transform="rotate(0,94,66)" height="14" width="14" y="59" x="87"/><rect transform="rotate(0,10,80)" height="14" width="14" y="73" x="3"/><rect transform="rotate(0,94,80)" height="14" width="14" y="73" x="87"/><rect transform="rotate(0,10,94)" height="14" width="14" y="87" x="3"/><rect transform="rotate(0,24,94)" height="14" width="14" y="87" x="17"/><rect transform="rotate(0,38,94)" height="14" width="14" y="87" x="31"/><rect transform="rotate(0,52,94)" height="14" width="14" y="87" x="45"/><rect transform="rotate(0,66,94)" height="14" width="14" y="87" x="59"/><rect transform="rotate(0,80,94)" height="14" width="14" y="87" x="73"/><rect transform="rotate(0,94,94)" height="14" width="14" y="87" x="87"/></clipPath><clipPath id="clip-path-corners-dot-color-0-0-71"><rect transform="rotate(0,38,38)" height="14" width="14" y="31" x="31"/><rect transform="rotate(0,52,38)" height="14" width="14" y="31" x="45"/><rect transform="rotate(0,66,38)" height="14" width="14" y="31" x="59"/><rect transform="rotate(0,38,52)" height="14" width="14" y="45" x="31"/><rect transform="rotate(0,52,52)" height="14" width="14" y="45" x="45"/><rect transform="rotate(0,66,52)" height="14" width="14" y="45" x="59"/><rect transform="rotate(0,38,66)" height="14" width="14" y="59" x="31"/><rect transform="rotate(0,52,66)" height="14" width="14" y="59" x="45"/><rect transform="rotate(0,66,66)" height="14" width="14" y="59" x="59"/></clipPath><clipPath id="clip-path-corners-square-color-1-0-71"><rect transform="rotate(0,206,10)" height="14" width="14" y="3" x="199"/><rect transform="rotate(0,220,10)" height="14" width="14" y="3" x="213"/><rect transform="rotate(0,234,10)" height="14" width="14" y="3" x="227"/><rect transform="rotate(0,248,10)" height="14" width="14" y="3" x="241"/><rect transform="rotate(0,262,10)" height="14" width="14" y="3" x="255"/><rect transform="rotate(0,276,10)" height="14" width="14" y="3" x="269"/><rect transform="rotate(0,290,10)" height="14" width="14" y="3" x="283"/><rect transform="rotate(0,206,24)" height="14" width="14" y="17" x="199"/><rect transform="rotate(0,290,24)" height="14" width="14" y="17" x="283"/><rect transform="rotate(0,206,38)" height="14" width="14" y="31" x="199"/><rect transform="rotate(0,290,38)" height="14" width="14" y="31" x="283"/><rect transform="rotate(0,206,52)" height="14" width="14" y="45" x="199"/><rect transform="rotate(0,290,52)" height="14" width="14" y="45" x="283"/><rect transform="rotate(0,206,66)" height="14" width="14" y="59" x="199"/><rect transform="rotate(0,290,66)" height="14" width="14" y="59" x="283"/><rect transform="rotate(0,206,80)" height="14" width="14" y="73" x="199"/><rect transform="rotate(0,290,80)" height="14" width="14" y="73" x="283"/><rect transform="rotate(0,206,94)" height="14" width="14" y="87" x="199"/><rect transform="rotate(0,220,94)" height="14" width="14" y="87" x="213"/><rect transform="rotate(0,234,94)" height="14" width="14" y="87" x="227"/><rect transform="rotate(0,248,94)" height="14" width="14" y="87" x="241"/><rect transform="rotate(0,262,94)" height="14" width="14" y="87" x="255"/><rect transform="rotate(0,276,94)" height="14" width="14" y="87" x="269"/><rect transform="rotate(0,290,94)" height="14" width="14" y="87" x="283"/></clipPath><clipPath id="clip-path-corners-dot-color-1-0-71"><rect transform="rotate(0,234,38)" height="14" width="14" y="31" x="227"/><rect transform="rotate(0,248,38)" height="14" width="14" y="31" x="241"/><rect transform="rotate(0,262,38)" height="14" width="14" y="31" x="255"/><rect transform="rotate(0,234,52)" height="14" width="14" y="45" x="227"/><rect transform="rotate(0,248,52)" height="14" width="14" y="45" x="241"/><rect transform="rotate(0,262,52)" height="14" width="14" y="45" x="255"/><rect transform="rotate(0,234,66)" height="14" width="14" y="59" x="227"/><rect transform="rotate(0,248,66)" height="14" width="14" y="59" x="241"/><rect transform="rotate(0,262,66)" height="14" width="14" y="59" x="255"/></clipPath><clipPath id="clip-path-corners-square-color-0-1-71"><rect transform="rotate(0,10,206)" height="14" width="14" y="199" x="3"/><rect transform="rotate(0,24,206)" height="14" width="14" y="199" x="17"/><rect transform="rotate(0,38,206)" height="14" width="14" y="199" x="31"/><rect transform="rotate(0,52,206)" height="14" width="14" y="199" x="45"/><rect transform="rotate(0,66,206)" height="14" width="14" y="199" x="59"/><rect transform="rotate(0,80,206)" height="14" width="14" y="199" x="73"/><rect transform="rotate(0,94,206)" height="14" width="14" y="199" x="87"/><rect transform="rotate(0,10,220)" height="14" width="14" y="213" x="3"/><rect transform="rotate(0,94,220)" height="14" width="14" y="213" x="87"/><rect transform="rotate(0,10,234)" height="14" width="14" y="227" x="3"/><rect transform="rotate(0,94,234)" height="14" width="14" y="227" x="87"/><rect transform="rotate(0,10,248)" height="14" width="14" y="241" x="3"/><rect transform="rotate(0,94,248)" height="14" width="14" y="241" x="87"/><rect transform="rotate(0,10,262)" height="14" width="14" y="255" x="3"/><rect transform="rotate(0,94,262)" height="14" width="14" y="255" x="87"/><rect transform="rotate(0,10,276)" height="14" width="14" y="269" x="3"/><rect transform="rotate(0,94,276)" height="14" width="14" y="269" x="87"/><rect transform="rotate(0,10,290)" height="14" width="14" y="283" x="3"/><rect transform="rotate(0,24,290)" height="14" width="14" y="283" x="17"/><rect transform="rotate(0,38,290)" height="14" width="14" y="283" x="31"/><rect transform="rotate(0,52,290)" height="14" width="14" y="283" x="45"/><rect transform="rotate(0,66,290)" height="14" width="14" y="283" x="59"/><rect transform="rotate(0,80,290)" height="14" width="14" y="283" x="73"/><rect transform="rotate(0,94,290)" height="14" width="14" y="283" x="87"/></clipPath><clipPath id="clip-path-corners-dot-color-0-1-71"><rect transform="rotate(0,38,234)" height="14" width="14" y="227" x="31"/><rect transform="rotate(0,52,234)" height="14" width="14" y="227" x="45"/><rect transform="rotate(0,66,234)" height="14" width="14" y="227" x="59"/><rect transform="rotate(0,38,248)" height="14" width="14" y="241" x="31"/><rect transform="rotate(0,52,248)" height="14" width="14" y="241" x="45"/><rect transform="rotate(0,66,248)" height="14" width="14" y="241" x="59"/><rect transform="rotate(0,38,262)" height="14" width="14" y="255" x="31"/><rect transform="rotate(0,52,262)" height="14" width="14" y="255" x="45"/><rect transform="rotate(0,66,262)" height="14" width="14" y="255" x="59"/></clipPath></defs><rect fill="#ffffff" clip-path="url('#clip-path-background-color-71')" width="300" height="300" y="0" x="0"/><rect fill="#000000" clip-path="url('#clip-path-dot-color-71')" width="300" height="300" y="0" x="0"/><rect fill="#000000" clip-path="url('#clip-path-corners-square-color-0-0-71')" width="98" height="98" y="3" x="3"/><rect fill="#000000" clip-path="url('#clip-path-corners-dot-color-0-0-71')" width="42" height="42" y="31" x="31"/><rect fill="#000000" clip-path="url('#clip-path-corners-square-color-1-0-71')" width="98" height="98" y="3" x="199"/><rect fill="#000000" clip-path="url('#clip-path-corners-dot-color-1-0-71')" width="42" height="42" y="31" x="227"/><rect fill="#000000" clip-path="url('#clip-path-corners-square-color-0-1-71')" width="98" height="98" y="199" x="3"/><rect fill="#000000" clip-path="url('#clip-path-corners-dot-color-0-1-71')" width="42" height="42" y="227" x="31"/></svg>